<svg id="Layer_2" data-name="Layer 2" xmlns="http://www.w3.org/2000/svg" viewBox="0 0 233.82 203.66"><title>logo__black__Finding_Futures</title><path d="M159.18,94.07a.48.48,0,0,1,.63.68q-4.54,6.93-9.8,15.26-5.54,8.77-11.14,18.34a.54.54,0,0,1-.28.23A93.3,93.3,0,0,0,123.46,136a82.42,82.42,0,0,0-13.09,9.88,2.42,2.42,0,0,0,.38,3.86c1.69,1,4.81,1.42,10.49-.83,2.5-1,4.71-2.67,7.11-4a.52.52,0,0,1,.7.7q-3,5.53-5.7,10.88-3,6.08-5.54,11.72t-4.29,10.75A60.9,60.9,0,0,0,111,188.2l0,.06a12.66,12.66,0,0,0-.91,7,10,10,0,0,0,2.17,5,4.15,4.15,0,0,0,3.64,1.52q2-.22,3.57-3.33l0-.07A101.76,101.76,0,0,1,124,185.68q3-7.11,7-15t8.85-16.34q4.78-8.37,9.93-16.64a.53.53,0,0,1,.33-.24,117.94,117.94,0,0,1,14.66-2.39q7.3-.71,13.72-1.25c1.5.28,10.84-.65,18-.52,6.06-.19,8.92-.81,9.19-3.19,0,0-3.81-14-12.73-12.79q-4.07.8-8.38,1.46l-9,1.36-8.14,1.3q-3.42.55-6.92,1.27a.52.52,0,0,1-.53-.79q7.39-11.24,14.78-20.61c.49-.62,1-1.21,1.5-1.81,1.47-1.7,4.9-5.81,5.71-8.34a1.35,1.35,0,0,1,.78-.77c5.23-1.7,3.68-.88,9.62-2.13,7-1.47,10.43-2,16.16-3.28,3.23-.7,5.82-1.23,7-1.47a9.75,9.75,0,0,0,1.22-.33c3.32-1.13,13.67-3.73,14.43-5.65a49.93,49.93,0,0,0,2.12-6.73c.38-1.6.66-1.53.5-2.61a1.26,1.26,0,0,0-1-1.08,33.36,33.36,0,0,0-8.78.54q-5.65.81-13.14,1.68-8.36,1-18.62,2.23t-21,3.31Q160.48,77,149.84,80.1s-20.37,6.06-36.48,8.69q9.42-14.44,18.84-26.24a7.05,7.05,0,0,0,.5-5.21,14.28,14.28,0,0,0-2.51-5q10.92-1.63,21.72-2.7L173,47.6l17.2-1.51q1.25-.25,3-3.14a43.67,43.67,0,0,0,3.26-6.72,57.82,57.82,0,0,0,2.45-7.79A17.63,17.63,0,0,0,199.5,22a50.63,50.63,0,0,1-11.3,2.83q-6.53.94-15.19,1.95-9.67,1.13-21.54,2.57t-24.3,3.83q-12.43,2.39-24.74,6a136.93,136.93,0,0,0-23,9,83.74,83.74,0,0,0-18.9,12.93A50.27,50.27,0,0,0,48.06,78.75q-1.38,3.27-2.2,5.84a36.84,36.84,0,0,0-1.19,4.71,18.38,18.38,0,0,0-.06,6.59,58.33,58.33,0,0,0,1.69,6.72,10.88,10.88,0,0,0,6,4.33,23.6,23.6,0,0,0,7,1.19,9.08,9.08,0,0,0,5.46-1.51A3.8,3.8,0,0,0,66.52,103L66,101.6a18.6,18.6,0,0,1-5.27-7.09A13,13,0,0,1,60,87.91q.88-5.15,5.59-9.86a61.73,61.73,0,0,1,11.05-8.66,97.15,97.15,0,0,1,13.06-6.84,118.22,118.22,0,0,1,11.62-4.4q3.26-.88,6.59-1.63t6.72-1.38q-5.53,8.41-12,18.65t-13,21.41a107.82,107.82,0,0,0-17.71,8.6,97.4,97.4,0,0,0-17,13.12,45.79,45.79,0,0,0-3.83,4.46,54.83,54.83,0,0,0-4,6,56.42,56.42,0,0,0-3.33,6.78,29.75,29.75,0,0,0-1.95,6.78,27.49,27.49,0,0,0-.31,4.83,11,11,0,0,0,1.07,4.46,4.65,4.65,0,0,0,2.7,1.7,11.5,11.5,0,0,0,4,.44,6.63,6.63,0,0,0,3.39-1.07A2.94,2.94,0,0,0,54,148.44l-.38-1.13a5.84,5.84,0,0,1-1.32-3.14,14.06,14.06,0,0,1,.06-3.52,22.76,22.76,0,0,1,1.26-4.52,26,26,0,0,1,2.07-4.21,34.41,34.41,0,0,1,2.45-3.52,31.49,31.49,0,0,1,2.26-2.57,64.94,64.94,0,0,1,9-7.09,85.41,85.41,0,0,1,10-5.59q-4,7.28-7.53,14.31T65.39,141q-2.89,6.53-5,12.43a70.4,70.4,0,0,0-3,10.8,14.66,14.66,0,0,0-1.07,8.16,11.53,11.53,0,0,0,2.51,5.78A4.8,4.8,0,0,0,63.13,180q2.38-.25,4.14-3.89a117.58,117.58,0,0,1,5.21-14.75q3.45-8.22,8.1-17.33t10.23-18.9c3-5.22,4.76-8.33,7.4-12.65a8.11,8.11,0,0,1,6.18-3.85C114.36,107.68,140.77,104.41,159.18,94.07Z"/><path d="M176,167.35c16.7-1.74,35.36-7.3,45.5-21.74a35.44,35.44,0,0,0-4.14-45.4c-1.29-1.26-4.14-3.54-6.09-2.26s-.91,3.76.4,5c10.84,10.62,9.41,27.87.06,38.9-9.91,11.7-25.85,16.15-40.54,17.68-5,.52,1.1,8.16,4.81,7.78Z"/><path d="M173.57,12.88C132-6,83.13-5.28,45.81,22.56,10.65,48.78-8.06,94.21,3.33,137.29,11,166.43,30.89,191.17,58.85,203c3.2,1.35,7.42.54,10.27-1.33,1.81-1.19,4.49-4.47,1.2-5.86C26.95,177.47,6,126.91,18,82.39c9.91-37,41.34-68.24,80-73.48C119.52,6,142.41,11.14,162.1,20.07c3.14,1.43,7.47.51,10.27-1.33,1.88-1.23,4.43-4.39,1.2-5.86Z"/></svg>